{
    "asset" : {
        "generator" : "Khronos glTF Blender I/O v1.3.48",
        "version" : "2.0"
    },
    "scene" : 0,
    "scenes" : [
        {
            "name" : "Scene",
            "nodes" : [
                4
            ]
        }
    ],
    "nodes" : [
        {
            "mesh" : 0,
            "name" : "Spire_1",
            "rotation" : [
                0,
                0,
                -0.13394181430339813,
                0.9909892082214355
            ],
            "scale" : [
                0.9665998816490173,
                1.9730743169784546,
                0.9665998220443726
            ]
        },
        {
            "mesh" : 1,
            "name" : "Spire_2",
            "rotation" : [
                -0.1060328260064125,
                0.7845003008842468,
                -0.08183793723583221,
                0.6054906249046326
            ],
            "scale" : [
                0.9143921136856079,
                1.9730740785598755,
                0.9143921732902527
            ]
        },
        {
            "mesh" : 2,
            "name" : "Spire_3",
            "rotation" : [
                0.130048930644989,
                -0.9621872305870056,
                -0.0320575125515461,
                0.23718246817588806
            ],
            "scale" : [
                0.8077337741851807,
                1.9730740785598755,
                0.8077337741851807
            ]
        },
        {
            "mesh" : 3,
            "name" : "Spire_4",
            "rotation" : [
                0.08229666948318481,
                -0.6088846921920776,
                -0.10567717254161835,
                0.7818689346313477
            ],
            "scale" : [
                0.6145420670509338,
                1.9730740785598755,
                0.6145421862602234
            ]
        },
        {
            "children" : [
                0,
                1,
                2,
                3
            ],
            "mesh" : 4,
            "name" : "Ground",
            "scale" : [
                0.3105831444263458,
                0.3105831444263458,
                0.3105831444263458
            ],
            "translation" : [
                -0.022743847221136093,
                0,
                0.012320916168391705
            ]
        }
    ],
    "meshes" : [
        {
            "name" : "Sphere",
            "primitives" : [
                {
                    "attributes" : {
                        "POSITION" : 0,
                        "NORMAL" : 1,
                        "COLOR_0" : 2
                    },
                    "indices" : 3
                }
            ]
        },
        {
            "name" : "Sphere.001",
            "primitives" : [
                {
                    "attributes" : {
                        "POSITION" : 4,
                        "NORMAL" : 5,
                        "COLOR_0" : 6
                    },
                    "indices" : 3
                }
            ]
        },
        {
            "name" : "Sphere.002",
            "primitives" : [
                {
                    "attributes" : {
                        "POSITION" : 7,
                        "NORMAL" : 8,
                        "COLOR_0" : 9
                    },
                    "indices" : 3
                }
            ]
        },
        {
            "name" : "Sphere.003",
            "primitives" : [
                {
                    "attributes" : {
                        "POSITION" : 10,
                        "NORMAL" : 11,
                        "COLOR_0" : 12
                    },
                    "indices" : 3
                }
            ]
        },
        {
            "name" : "Torus",
            "primitives" : [
                {
                    "attributes" : {
                        "POSITION" : 13,
                        "NORMAL" : 14,
                        "COLOR_0" : 15
                    },
                    "indices" : 16
                }
            ]
        }
    ],
    "accessors" : [
        {
            "bufferView" : 0,
            "componentType" : 5126,
            "count" : 40,
            "max" : [
                0.74625164270401,
                3.0796260833740234,
                0.8314425945281982
            ],
            "min" : [
                -0.9857993721961975,
                0.23422129452228546,
                -0.9006084203720093
            ],
            "type" : "VEC3"
        },
        {
            "bufferView" : 1,
            "componentType" : 5126,
            "count" : 40,
            "type" : "VEC3"
        },
        {
            "bufferView" : 2,
            "componentType" : 5126,
            "count" : 40,
            "type" : "VEC4"
        },
        {
            "bufferView" : 3,
            "componentType" : 5123,
            "count" : 48,
            "type" : "SCALAR"
        },
        {
            "bufferView" : 4,
            "componentType" : 5126,
            "count" : 40,
            "max" : [
                1.0716272592544556,
                2.383936882019043,
                0.8469353914260864
            ],
            "min" : [
                -0.660423755645752,
                0.2847820520401001,
                -0.8851156234741211
            ],
            "type" : "VEC3"
        },
        {
            "bufferView" : 5,
            "componentType" : 5126,
            "count" : 40,
            "type" : "VEC3"
        },
        {
            "bufferView" : 6,
            "componentType" : 5126,
            "count" : 40,
            "type" : "VEC4"
        },
        {
            "bufferView" : 7,
            "componentType" : 5126,
            "count" : 40,
            "max" : [
                1.0190777778625488,
                2.782522439956665,
                0.9576164484024048
            ],
            "min" : [
                -0.7129731774330139,
                0.295535147190094,
                -0.7744345664978027
            ],
            "type" : "VEC3"
        },
        {
            "bufferView" : 8,
            "componentType" : 5126,
            "count" : 40,
            "type" : "VEC3"
        },
        {
            "bufferView" : 9,
            "componentType" : 5126,
            "count" : 40,
            "type" : "VEC4"
        },
        {
            "bufferView" : 10,
            "componentType" : 5126,
            "count" : 40,
            "max" : [
                1.3640248775482178,
                2.0944957733154297,
                0.8980217576026917
            ],
            "min" : [
                -0.36802613735198975,
                0.2590293884277344,
                -0.8340292572975159
            ],
            "type" : "VEC3"
        },
        {
            "bufferView" : 11,
            "componentType" : 5126,
            "count" : 40,
            "type" : "VEC3"
        },
        {
            "bufferView" : 12,
            "componentType" : 5126,
            "count" : 40,
            "type" : "VEC4"
        },
        {
            "bufferView" : 13,
            "componentType" : 5126,
            "count" : 19,
            "max" : [
                1.5700442790985107,
                0.9535278081893921,
                1.5286825895309448
            ],
            "min" : [
                -1.4354413747787476,
                -2.9802322387695312e-08,
                -1.4516061544418335
            ],
            "type" : "VEC3"
        },
        {
            "bufferView" : 14,
            "componentType" : 5126,
            "count" : 19,
            "type" : "VEC3"
        },
        {
            "bufferView" : 15,
            "componentType" : 5126,
            "count" : 19,
            "type" : "VEC4"
        },
        {
            "bufferView" : 16,
            "componentType" : 5123,
            "count" : 81,
            "type" : "SCALAR"
        }
    ],
    "bufferViews" : [
        {
            "buffer" : 0,
            "byteLength" : 480,
            "byteOffset" : 0
        },
        {
            "buffer" : 0,
            "byteLength" : 480,
            "byteOffset" : 480
        },
        {
            "buffer" : 0,
            "byteLength" : 640,
            "byteOffset" : 960
        },
        {
            "buffer" : 0,
            "byteLength" : 96,
            "byteOffset" : 1600
        },
        {
            "buffer" : 0,
            "byteLength" : 480,
            "byteOffset" : 1696
        },
        {
            "buffer" : 0,
            "byteLength" : 480,
            "byteOffset" : 2176
        },
        {
            "buffer" : 0,
            "byteLength" : 640,
            "byteOffset" : 2656
        },
        {
            "buffer" : 0,
            "byteLength" : 480,
            "byteOffset" : 3296
        },
        {
            "buffer" : 0,
            "byteLength" : 480,
            "byteOffset" : 3776
        },
        {
            "buffer" : 0,
            "byteLength" : 640,
            "byteOffset" : 4256
        },
        {
            "buffer" : 0,
            "byteLength" : 480,
            "byteOffset" : 4896
        },
        {
            "buffer" : 0,
            "byteLength" : 480,
            "byteOffset" : 5376
        },
        {
            "buffer" : 0,
            "byteLength" : 640,
            "byteOffset" : 5856
        },
        {
            "buffer" : 0,
            "byteLength" : 228,
            "byteOffset" : 6496
        },
        {
            "buffer" : 0,
            "byteLength" : 228,
            "byteOffset" : 6724
        },
        {
            "buffer" : 0,
            "byteLength" : 304,
            "byteOffset" : 6952
        },
        {
            "buffer" : 0,
            "byteLength" : 162,
            "byteOffset" : 7256
        }
    ],
    "buffers" : [
        {
            "byteLength" : 7420,
            "uri" : "data:application/octet-stream;base64,"
        }
    ]
}
