{
    "asset" : {
        "generator" : "Khronos glTF Blender I/O v1.5.17",
        "version" : "2.0"
    },
    "scene" : 0,
    "scenes" : [
        {
            "name" : "Scene",
            "nodes" : [
                4
            ]
        }
    ],
    "nodes" : [
        {
            "mesh" : 0,
            "name" : "Spire_1",
            "rotation" : [
                0,
                0,
                -0.13394181430339813,
                0.9909892082214355
            ],
            "scale" : [
                0.9665998816490173,
                1.9730743169784546,
                0.9665998220443726
            ]
        },
        {
            "mesh" : 1,
            "name" : "Spire_2",
            "rotation" : [
                -0.1060328334569931,
                0.7845003008842468,
                -0.08183794468641281,
                0.6054906249046326
            ],
            "scale" : [
                0.9143921136856079,
                1.9730740785598755,
                0.9143921732902527
            ]
        },
        {
            "mesh" : 2,
            "name" : "Spire_3",
            "rotation" : [
                0.13004890084266663,
                -0.9621871113777161,
                -0.032057520002126694,
                0.23718255758285522
            ],
            "scale" : [
                0.8077337741851807,
                1.9730740785598755,
                0.8077337741851807
            ]
        },
        {
            "mesh" : 3,
            "name" : "Spire_4",
            "rotation" : [
                0.08229666948318481,
                -0.6088846325874329,
                -0.10567717254161835,
                0.7818689346313477
            ],
            "scale" : [
                0.6145420670509338,
                1.9730740785598755,
                0.6145421862602234
            ]
        },
        {
            "children" : [
                0,
                1,
                2,
                3
            ],
            "mesh" : 4,
            "name" : "Ground",
            "scale" : [
                0.3105831444263458,
                0.3105831444263458,
                0.3105831444263458
            ],
            "translation" : [
                -0.022743847221136093,
                0,
                0.012320916168391705
            ]
        }
    ],
    "meshes" : [
        {
            "name" : "Sphere",
            "primitives" : [
                {
                    "attributes" : {
                        "POSITION" : 0,
                        "NORMAL" : 1,
                        "TEXCOORD_0" : 2,
                        "COLOR_0" : 3
                    },
                    "indices" : 4
                }
            ]
        },
        {
            "name" : "Sphere.001",
            "primitives" : [
                {
                    "attributes" : {
                        "POSITION" : 5,
                        "NORMAL" : 6,
                        "TEXCOORD_0" : 7,
                        "COLOR_0" : 8
                    },
                    "indices" : 9
                }
            ]
        },
        {
            "name" : "Sphere.002",
            "primitives" : [
                {
                    "attributes" : {
                        "POSITION" : 10,
                        "NORMAL" : 11,
                        "TEXCOORD_0" : 12,
                        "COLOR_0" : 13
                    },
                    "indices" : 9
                }
            ]
        },
        {
            "name" : "Sphere.003",
            "primitives" : [
                {
                    "attributes" : {
                        "POSITION" : 14,
                        "NORMAL" : 15,
                        "TEXCOORD_0" : 16,
                        "COLOR_0" : 17
                    },
                    "indices" : 18
                }
            ]
        },
        {
            "name" : "Torus",
            "primitives" : [
                {
                    "attributes" : {
                        "POSITION" : 19,
                        "NORMAL" : 20,
                        "TEXCOORD_0" : 21,
                        "COLOR_0" : 22
                    },
                    "indices" : 23
                }
            ]
        }
    ],
    "accessors" : [
        {
            "bufferView" : 0,
            "componentType" : 5126,
            "count" : 40,
            "max" : [
                0.74625164270401,
                3.0796260833740234,
                0.8314425945281982
            ],
            "min" : [
                -0.9857993721961975,
                0.23422129452228546,
                -0.9006084203720093
            ],
            "type" : "VEC3"
        },
        {
            "bufferView" : 1,
            "componentType" : 5126,
            "count" : 40,
            "type" : "VEC3"
        },
        {
            "bufferView" : 2,
            "componentType" : 5126,
            "count" : 40,
            "type" : "VEC2"
        },
        {
            "bufferView" : 3,
            "componentType" : 5123,
            "count" : 40,
            "normalized" : true,
            "type" : "VEC4"
        },
        {
            "bufferView" : 4,
            "componentType" : 5123,
            "count" : 48,
            "type" : "SCALAR"
        },
        {
            "bufferView" : 5,
            "componentType" : 5126,
            "count" : 40,
            "max" : [
                1.0716272592544556,
                2.383936882019043,
                0.8469353914260864
            ],
            "min" : [
                -0.660423755645752,
                0.2847820520401001,
                -0.8851156234741211
            ],
            "type" : "VEC3"
        },
        {
            "bufferView" : 6,
            "componentType" : 5126,
            "count" : 40,
            "type" : "VEC3"
        },
        {
            "bufferView" : 7,
            "componentType" : 5126,
            "count" : 40,
            "type" : "VEC2"
        },
        {
            "bufferView" : 8,
            "componentType" : 5123,
            "count" : 40,
            "normalized" : true,
            "type" : "VEC4"
        },
        {
            "bufferView" : 9,
            "componentType" : 5123,
            "count" : 48,
            "type" : "SCALAR"
        },
        {
            "bufferView" : 10,
            "componentType" : 5126,
            "count" : 40,
            "max" : [
                1.0190777778625488,
                2.782522439956665,
                0.9576164484024048
            ],
            "min" : [
                -0.7129731774330139,
                0.295535147190094,
                -0.7744345664978027
            ],
            "type" : "VEC3"
        },
        {
            "bufferView" : 11,
            "componentType" : 5126,
            "count" : 40,
            "type" : "VEC3"
        },
        {
            "bufferView" : 12,
            "componentType" : 5126,
            "count" : 40,
            "type" : "VEC2"
        },
        {
            "bufferView" : 13,
            "componentType" : 5123,
            "count" : 40,
            "normalized" : true,
            "type" : "VEC4"
        },
        {
            "bufferView" : 14,
            "componentType" : 5126,
            "count" : 40,
            "max" : [
                1.3640248775482178,
                2.0944957733154297,
                0.8980217576026917
            ],
            "min" : [
                -0.36802613735198975,
                0.2590293884277344,
                -0.8340292572975159
            ],
            "type" : "VEC3"
        },
        {
            "bufferView" : 15,
            "componentType" : 5126,
            "count" : 40,
            "type" : "VEC3"
        },
        {
            "bufferView" : 16,
            "componentType" : 5126,
            "count" : 40,
            "type" : "VEC2"
        },
        {
            "bufferView" : 17,
            "componentType" : 5123,
            "count" : 40,
            "normalized" : true,
            "type" : "VEC4"
        },
        {
            "bufferView" : 18,
            "componentType" : 5123,
            "count" : 48,
            "type" : "SCALAR"
        },
        {
            "bufferView" : 19,
            "componentType" : 5126,
            "count" : 29,
            "max" : [
                1.5700442790985107,
                0.9535278081893921,
                1.5286825895309448
            ],
            "min" : [
                -1.4354413747787476,
                -2.9802322387695312e-08,
                -1.4516061544418335
            ],
            "type" : "VEC3"
        },
        {
            "bufferView" : 20,
            "componentType" : 5126,
            "count" : 29,
            "type" : "VEC3"
        },
        {
            "bufferView" : 21,
            "componentType" : 5126,
            "count" : 29,
            "type" : "VEC2"
        },
        {
            "bufferView" : 22,
            "componentType" : 5123,
            "count" : 29,
            "normalized" : true,
            "type" : "VEC4"
        },
        {
            "bufferView" : 23,
            "componentType" : 5123,
            "count" : 81,
            "type" : "SCALAR"
        }
    ],
    "bufferViews" : [
        {
            "buffer" : 0,
            "byteLength" : 480,
            "byteOffset" : 0
        },
        {
            "buffer" : 0,
            "byteLength" : 480,
            "byteOffset" : 480
        },
        {
            "buffer" : 0,
            "byteLength" : 320,
            "byteOffset" : 960
        },
        {
            "buffer" : 0,
            "byteLength" : 320,
            "byteOffset" : 1280
        },
        {
            "buffer" : 0,
            "byteLength" : 96,
            "byteOffset" : 1600
        },
        {
            "buffer" : 0,
            "byteLength" : 480,
            "byteOffset" : 1696
        },
        {
            "buffer" : 0,
            "byteLength" : 480,
            "byteOffset" : 2176
        },
        {
            "buffer" : 0,
            "byteLength" : 320,
            "byteOffset" : 2656
        },
        {
            "buffer" : 0,
            "byteLength" : 320,
            "byteOffset" : 2976
        },
        {
            "buffer" : 0,
            "byteLength" : 96,
            "byteOffset" : 3296
        },
        {
            "buffer" : 0,
            "byteLength" : 480,
            "byteOffset" : 3392
        },
        {
            "buffer" : 0,
            "byteLength" : 480,
            "byteOffset" : 3872
        },
        {
            "buffer" : 0,
            "byteLength" : 320,
            "byteOffset" : 4352
        },
        {
            "buffer" : 0,
            "byteLength" : 320,
            "byteOffset" : 4672
        },
        {
            "buffer" : 0,
            "byteLength" : 480,
            "byteOffset" : 4992
        },
        {
            "buffer" : 0,
            "byteLength" : 480,
            "byteOffset" : 5472
        },
        {
            "buffer" : 0,
            "byteLength" : 320,
            "byteOffset" : 5952
        },
        {
            "buffer" : 0,
            "byteLength" : 320,
            "byteOffset" : 6272
        },
        {
            "buffer" : 0,
            "byteLength" : 96,
            "byteOffset" : 6592
        },
        {
            "buffer" : 0,
            "byteLength" : 348,
            "byteOffset" : 6688
        },
        {
            "buffer" : 0,
            "byteLength" : 348,
            "byteOffset" : 7036
        },
        {
            "buffer" : 0,
            "byteLength" : 232,
            "byteOffset" : 7384
        },
        {
            "buffer" : 0,
            "byteLength" : 232,
            "byteOffset" : 7616
        },
        {
            "buffer" : 0,
            "byteLength" : 162,
            "byteOffset" : 7848
        }
    ],
    "buffers" : [
        {
            "byteLength" : 8012,
            "uri" : "data:application/octet-stream;base64,"
        }
    ]
}
