# Blender v2.83.2 OBJ File: 'box.blend'
# www.blender.org
mtllib box.mtl
o Cube_Cube.004
v 1.000000 -1.000000 -1.000000
v 1.000000 1.000000 -1.000000
v 1.000000 -1.000000 1.000000
v 1.000000 1.000000 1.000000
v -1.000000 -1.000000 -1.000000
v -1.000000 1.000000 -1.000000
v -1.000000 -1.000000 1.000000
v -1.000000 1.000000 1.000000
v 0.000000 -1.000000 1.000000
v 0.000000 1.000000 1.000000
v 0.000000 -1.000000 -1.000000
v 0.000000 1.000000 -1.000000
v 1.000000 -1.000000 0.000000
v 1.000000 1.000000 0.000000
v -1.000000 -1.000000 0.000000
v -1.000000 1.000000 0.000000
v 0.000000 1.000000 0.000000
v 0.000000 -1.000000 0.000000
v 1.000000 0.000000 -1.000000
v 1.000000 0.000000 1.000000
v -1.000000 0.000000 1.000000
v -1.000000 0.000000 -1.000000
v 0.000000 0.000000 -1.000000
v 0.000000 0.000000 1.000000
v -1.000000 0.000000 0.000000
v 1.000000 0.000000 0.000000
vt 0.500000 0.500000
vt 0.500000 1.000000
vt -0.000000 1.000000
vt -0.000000 0.500000
vt 0.500000 0.500000
vt 0.500000 1.000000
vt -0.000000 1.000000
vt -0.000000 0.500000
vt 0.500000 0.500000
vt 0.500000 1.000000
vt -0.000000 1.000000
vt -0.000000 0.500000
vt 0.500000 0.500000
vt 0.500000 1.000000
vt 0.000000 1.000000
vt 0.000000 0.500000
vt 0.500000 0.500000
vt 1.000000 0.500000
vt 1.000000 1.000000
vt 0.500000 1.000000
vt 0.500000 0.500000
vt 1.000000 0.500000
vt 1.000000 1.000000
vt 0.000000 0.500000
vt -0.000000 0.500000
vt -0.000000 1.000000
vt 1.000000 0.500000
vt 1.000000 1.000000
vt 1.000000 0.500000
vt 1.000000 1.000000
vt -0.000000 -0.000000
vt 0.500000 -0.000000
vt 0.000000 -0.000000
vt 0.500000 -0.000000
vt 1.000000 -0.000000
vt 1.000000 -0.000000
vt 1.000000 0.500000
vt 1.000000 1.000000
vt 1.000000 0.500000
vt 1.000000 -0.000000
vt 0.500000 -0.000000
vt 0.500000 -0.000000
vt 1.000000 -0.000000
vt 1.000000 0.000000
vt 0.500000 0.000000
vt 0.000000 0.000000
vt -0.000000 -0.000000
vt -0.000000 -0.000000
vn 1.0000 0.0000 0.0000
vn 0.0000 0.0000 1.0000
vn -1.0000 0.0000 0.0000
vn 0.0000 0.0000 -1.0000
vn 0.0000 -1.0000 0.0000
vn 0.0000 1.0000 0.0000
usemtl None
s off
f 26/1/1 14/2/1 4/3/1 20/4/1
f 24/5/2 10/6/2 8/7/2 21/8/2
f 25/9/3 16/10/3 6/11/3 22/12/3
f 23/13/4 12/14/4 2/15/4 19/16/4
f 18/17/5 15/18/5 5/19/5 11/20/5
f 17/21/6 14/22/6 2/23/6 12/14/6
f 16/24/6 17/21/6 12/14/6 6/11/6
f 13/25/5 18/17/5 11/20/5 1/26/5
f 22/27/4 6/28/4 12/14/4 23/13/4
f 20/29/2 4/30/2 10/6/2 24/5/2
f 3/31/5 9/32/5 18/17/5 13/25/5
f 8/33/6 10/34/6 17/21/6 16/24/6
f 10/34/6 4/35/6 14/22/6 17/21/6
f 9/32/5 7/36/5 15/18/5 18/17/5
f 21/37/3 8/38/3 16/10/3 25/9/3
f 19/39/1 2/23/1 14/2/1 26/1/1
f 1/40/1 19/39/1 26/1/1 13/41/1
f 7/36/3 21/37/3 25/9/3 15/42/3
f 3/43/2 20/29/2 24/5/2 9/32/2
f 5/44/4 22/27/4 23/13/4 11/45/4
f 11/45/4 23/13/4 19/16/4 1/46/4
f 15/42/3 25/9/3 22/12/3 5/47/3
f 9/32/2 24/5/2 21/8/2 7/48/2
f 13/41/1 26/1/1 20/4/1 3/31/1
