# Blender 3.4.1
# www.blender.org
o Cube
v 0.900000 0.900000 -1.000000
v 0.900000 1.000000 -0.900000
v 0.900000 1.000000 -0.900000
v 1.000000 0.900000 -0.900000
v 1.000000 0.900000 -0.900000
v 0.900000 -1.000000 -0.900000
v 0.900000 -0.900000 -1.000000
v 0.900000 -0.900000 -1.000000
v 1.000000 -0.900000 -0.900000
v 1.000000 -0.900000 -0.900000
v 1.000000 0.900000 0.900000
v 0.900000 1.000000 0.900000
v 0.900000 1.000000 0.900000
v 0.900000 1.000000 0.900000
v 0.900000 0.900000 1.000000
v 0.900000 0.900000 1.000000
v 1.000000 -0.900000 0.900000
v 1.000000 -0.900000 0.900000
v 0.900000 -0.900000 1.000000
v 0.900000 -0.900000 1.000000
v 0.900000 -0.900000 1.000000
v 0.900000 -1.000000 0.900000
v 0.900000 -1.000000 0.900000
v -0.900000 0.900000 -1.000000
v -0.900000 0.900000 -1.000000
v -1.000000 0.900000 -0.900000
v -1.000000 0.900000 -0.900000
v -0.900000 1.000000 -0.900000
v -0.900000 1.000000 -0.900000
v -0.900000 1.000000 -0.900000
v -1.000000 -0.900000 -0.900000
v -1.000000 -0.900000 -0.900000
v -0.900000 -0.900000 -1.000000
v -0.900000 -0.900000 -1.000000
v -0.900000 -0.900000 -1.000000
v -0.900000 -1.000000 -0.900000
v -0.900000 -1.000000 -0.900000
v -1.000000 0.900000 0.900000
v -0.900000 0.900000 1.000000
v -0.900000 0.900000 1.000000
v -0.900000 1.000000 0.900000
v -0.900000 1.000000 0.900000
v -0.900000 1.000000 0.900000
v -0.900000 -1.000000 0.900000
v -0.900000 -0.900000 1.000000
v -0.900000 -0.900000 1.000000
v -0.900000 -0.900000 1.000000
v -1.000000 -0.900000 0.900000
v -1.000000 -0.900000 0.900000
vn -0.3417 -0.8755 -0.3417
vn 0.3416 -0.8756 -0.3416
vn 0.3417 -0.8755 0.3417
vn -0.3416 -0.8756 0.3416
vn -0.8756 -0.3416 0.3416
vn -0.8756 0.3416 0.3416
vn -0.8755 0.3417 -0.3417
vn -0.8756 -0.3416 -0.3416
vn 0.3416 -0.3416 0.8756
vn 0.3417 0.3417 0.8755
vn -0.3416 0.3416 0.8756
vn -0.3416 -0.3416 0.8756
vn 0.3416 0.8756 -0.3416
vn -0.3416 0.8756 -0.3416
vn -0.3416 0.8756 0.3416
vn 0.3416 0.8756 0.3416
vn 0.8755 -0.3417 -0.3417
vn 0.8755 0.3417 -0.3417
vn 0.8755 0.3417 0.3417
vn 0.8755 -0.3417 0.3417
vn 0.3416 0.3416 -0.8756
vn 0.8756 0.3415 -0.3416
vn 0.3416 -0.3416 -0.8756
vn 0.8756 -0.3416 -0.3415
vn 0.8756 0.3416 0.3415
vn 0.3415 0.8756 0.3416
vn 0.3416 0.3415 0.8756
vn 0.8756 -0.3415 0.3416
vn 0.3415 -0.3416 0.8756
vn 0.3416 -0.8756 0.3415
vn -0.3416 0.3415 -0.8756
vn -0.8756 0.3416 -0.3415
vn -0.3415 0.8756 -0.3416
vn -0.8756 -0.3415 -0.3416
vn -0.3415 -0.3416 -0.8756
vn -0.3416 -0.8756 -0.3415
vn -0.3415 0.8756 0.3416
vn -0.8756 -0.3415 0.3416
vn -0.3416 -0.3415 -0.8756
vn -0.3415 -0.3416 0.8756
vn -0.3417 0.3417 -0.8755
vn -0.3416 -0.3416 -0.8756
vn 0.3416 0.8756 0.3415
vn -0.3416 0.8756 0.3415
vn 0.3416 -0.3415 0.8756
vn -0.3416 0.8756 -0.3415
vt 0.612500 0.487500
vt 0.625000 0.487500
vt 0.637500 0.512500
vt 0.612500 0.512500
vt 0.612500 0.500000
vt 0.362500 0.512500
vt 0.362500 0.500000
vt 0.387500 0.487500
vt 0.375000 0.512500
vt 0.387500 0.512500
vt 0.612500 0.737500
vt 0.625000 0.762500
vt 0.625000 0.737500
vt 0.637500 0.737500
vt 0.612500 0.762500
vt 0.612500 0.750000
vt 0.387500 0.750000
vt 0.387500 0.737500
vt 0.362500 0.750000
vt 0.375000 0.762500
vt 0.387500 0.762500
vt 0.362500 0.737500
vt 0.375000 0.762500
vt 0.612500 0.262500
vt 0.612500 0.250000
vt 0.612500 0.237500
vt 0.612500 0.250000
vt 0.625000 0.262500
vt 0.625000 0.237500
vt 0.862500 0.512500
vt 0.125000 0.512500
vt 0.387500 0.237500
vt 0.137500 0.500000
vt 0.387500 0.262500
vt 0.387500 0.250000
vt 0.137500 0.512500
vt 0.375000 0.237500
vt 0.612500 0.012500
vt 0.612500 0.987500
vt 0.612500 0.000000
vt 0.625000 0.987500
vt 0.625000 0.012500
vt 0.862500 0.737500
vt 0.137500 0.737500
vt 0.137500 0.750000
vt 0.387500 0.987500
vt 0.387500 0.000000
vt 0.125000 0.737500
vt 0.387500 0.012500
s 1
f 36/36/1 6/6/2 22/22/3
f 36/36/1 22/22/3 44/44/4
f 49/49/5 38/38/6 26/26/7
f 49/49/5 26/26/7 32/32/8
f 21/21/9 15/15/10 39/39/11
f 21/21/9 39/39/11 46/46/12
f 3/3/13 30/30/14 43/43/15
f 3/3/13 43/43/15 14/14/16
f 10/10/17 4/4/18 11/11/19
f 10/10/17 11/11/19 18/18/20
f 1/1/21 2/2/13 5/5/22
f 6/6/2 7/7/23 9/9/24
f 11/11/25 13/13/26 16/16/27
f 17/17/28 20/20/29 23/23/30
f 25/25/31 27/27/32 29/29/33
f 32/32/34 35/35/35 37/37/36
f 38/38/6 40/40/11 42/42/37
f 44/44/4 45/45/12 48/48/38
f 36/36/1 44/44/4 48/48/38
f 36/36/1 48/48/38 31/31/34
f 6/6/2 36/36/1 33/33/39
f 6/6/2 33/33/39 7/7/23
f 4/4/18 10/10/17 8/8/23
f 4/4/18 8/8/23 1/1/21
f 47/47/40 40/40/11 38/38/6
f 47/47/40 38/38/6 49/49/5
f 15/15/10 21/21/9 18/18/20
f 15/15/10 18/18/20 11/11/19
f 24/24/41 34/34/42 32/32/8
f 24/24/41 32/32/8 26/26/7
f 12/12/43 41/41/44 39/39/11
f 12/12/43 39/39/11 15/15/10
f 3/3/13 14/14/16 11/11/19
f 3/3/13 11/11/19 4/4/18
f 44/44/4 22/22/3 19/19/45
f 44/44/4 19/19/45 45/45/12
f 42/42/37 29/29/33 26/26/7
f 42/42/37 26/26/7 38/38/6
f 28/28/46 2/2/13 1/1/21
f 28/28/46 1/1/21 24/24/41
f 22/22/3 6/6/2 10/10/17
f 22/22/3 10/10/17 18/18/20
f 34/34/42 24/24/41 1/1/21
f 34/34/42 1/1/21 8/8/23
